<svg xmlns="http://www.w3.org/2000/svg" viewBox="0 0 1747.07 350"><defs><style>.cls-1{fill:#b3b3b3;}.cls-2{fill:#f2f2f2;}.cls-3{fill:#ccc;}.cls-4{fill:#fff;}</style></defs><title>Imagotipo BN</title><g id="Layer_2" data-name="Layer 2"><g id="Isotipo_White_" data-name="Isotipo (White)"><path class="cls-1" d="M350,175a174.1,174.1,0,0,1-25.19,90.49l-72.73-49.05a87.51,87.51,0,0,0-144.37-97.37L35,70A175,175,0,0,1,350,175Z"/><path class="cls-2" d="M315,280A175,175,0,0,1,25.19,84.51l72.73,49.05a87.51,87.51,0,0,0,144.37,97.37Z"/><path class="cls-3" d="M242.29,230.93A87.51,87.51,0,0,1,97.92,133.56Z"/></g><g id="Logotipo_White_" data-name="Logotipo (White)"><g id="R_white_" data-name="R (white)"><path class="cls-4" d="M1747.07,56.91a22.23,22.23,0,0,1-2.78,11.2,20.1,20.1,0,0,1-7.66,7.65,23.91,23.91,0,0,1-22.38,0,20.17,20.17,0,0,1-7.66-7.65,22.23,22.23,0,0,1-2.78-11.2,22.22,22.22,0,0,1,2.78-11.19,20.17,20.17,0,0,1,7.66-7.65,23.84,23.84,0,0,1,22.38,0,20.1,20.1,0,0,1,7.66,7.65A22.22,22.22,0,0,1,1747.07,56.91Zm-40.38,0a19.3,19.3,0,0,0,2.41,9.72,17.42,17.42,0,0,0,6.62,6.63,20.88,20.88,0,0,0,19.44,0,17.42,17.42,0,0,0,6.62-6.63,19.2,19.2,0,0,0,2.41-9.72,19.19,19.19,0,0,0-2.41-9.71,17.35,17.35,0,0,0-6.62-6.63,20.88,20.88,0,0,0-19.44,0,17.35,17.35,0,0,0-6.62,6.63A19.29,19.29,0,0,0,1706.69,56.91Zm14,9.69a1.44,1.44,0,0,1-2.88,0V46.48a1.28,1.28,0,0,1,1.44-1.45h8a5.89,5.89,0,0,1,6.52,6.53v1q0,5.08-4,6.25l3.84,7.21a1.43,1.43,0,1,1-2.54,1.3l-4.32-8.17h-6Zm0-10.3h6.6a3.8,3.8,0,0,0,2.79-.86,4,4,0,0,0,.84-2.85v-1a3.86,3.86,0,0,0-.84-2.8,3.85,3.85,0,0,0-2.79-.84h-6.6Z"/></g><g id="Logotipo_white" data-name="Logotipo white"><g id="DataInt_Otlns" data-name="DataInt Otlns"><path class="cls-4" d="M428.81,283.6q-7.15,0-7.16-7.17V74.79q0-7.17,7.16-7.16H511q41.79,0,60.65,18.85t18.85,60.64v57q0,41.63-18.85,60.56T511,283.6ZM436,269.27H511q23.71,0,38-6.4a39.66,39.66,0,0,0,20.73-20.73q6.39-14.32,6.4-38v-57q0-23.7-6.4-38a39.73,39.73,0,0,0-20.73-20.73Q534.75,82,511,82H436Z"/><path class="cls-4" d="M728.71,283.6q-25.76,0-37.61-11.86t-11.86-37.62q0-25.92,11.94-37.87t37.53-11.94h79.5q-.16-24-10.41-33.86t-35-9.81H743q-23.19,0-33.77,5.37t-12.63,18.17a9.52,9.52,0,0,1-2.13,5q-1.62,1.8-5,1.8a6.5,6.5,0,0,1-7.17-7.51q1.37-19.45,16.47-28.32T743,126.31h19.79q31.23,0,45.47,14.24T822.54,186v90.41q0,7.17-7.17,7.17t-7.16-7.17V256.3q-15.69,27.3-60.39,27.3Zm0-14.33h19.11q17.91,0,31-4.1t20.65-13q7.58-8.86,8.78-23.2V198.64h-79.5q-19.62,0-27.38,7.76t-7.76,27.72q0,19.62,7.76,27.38T728.71,269.27Z"/><path class="cls-4" d="M978.46,283.6q-30.71,0-44.7-14t-14-44.36V140.64h-21.5q-7.17,0-7.16-7.17t7.16-7.16h21.5V85.71q0-7.17,7.16-7.17t7.17,7.17v40.6h44q7.15,0,7.16,7.16t-7.16,7.17h-44v84.61q0,24.57,9.8,34.29t34.55,9.73q4.44,0,6,1.87a8.19,8.19,0,0,1,1.54,5.29Q986,283.6,978.46,283.6Z"/><path class="cls-4" d="M1100.26,283.6q-25.76,0-37.61-11.86t-11.86-37.62q0-25.92,11.94-37.87t37.53-11.94h79.5q-.16-24-10.41-33.86t-35-9.81h-19.79q-23.19,0-33.77,5.37t-12.63,18.17a9.52,9.52,0,0,1-2.13,5q-1.62,1.8-5,1.8a6.5,6.5,0,0,1-7.17-7.51q1.37-19.45,16.46-28.32t44.27-8.87h19.79q31.21,0,45.47,14.24T1194.09,186v90.41q0,7.17-7.17,7.17t-7.16-7.17V256.3q-15.69,27.3-60.39,27.3Zm0-14.33h19.11q17.91,0,31-4.1t20.64-13q7.59-8.86,8.79-23.2V198.64h-79.5q-19.62,0-27.38,7.76t-7.76,27.72q0,19.62,7.76,27.38T1100.26,269.27Z"/><path class="cls-4" d="M1293.71,283.6a7,7,0,0,1-7.16-7.17v-202a7.17,7.17,0,1,1,14.33,0v202a7,7,0,0,1-7.17,7.17Z"/><path class="cls-4" d="M1403.57,283.6q-7.17,0-7.16-7.17v-143q0-7.16,7.16-7.16t7.17,7.16v19.79q15.51-26.94,60.39-26.95h9.55q31.21,0,45.46,14.24T1540.39,186v90.41q0,7.17-7.17,7.17t-7.16-7.17V186q0-25.08-10.15-35.23t-35.23-10.15h-9.55q-28.32,0-43.51,9.64t-16.88,29.94v96.21Q1410.74,283.6,1403.57,283.6Z"/><path class="cls-4" d="M1696.3,283.6q-30.71,0-44.69-14t-14-44.36V140.64h-21.49q-7.17,0-7.17-7.17t7.17-7.16h21.49V85.71q0-7.17,7.17-7.17t7.16,7.17v40.6h44q7.17,0,7.17,7.16t-7.17,7.17h-44v84.61q0,24.57,9.81,34.29t34.54,9.73q4.44,0,6,1.87a8.13,8.13,0,0,1,1.54,5.29Q1703.81,283.6,1696.3,283.6Z"/></g></g></g></g></svg>