<svg xmlns="http://www.w3.org/2000/svg" viewBox="0 0 1747.07 550.32"><defs><style>.cls-1{fill:#5e738e;}.cls-2{fill:#2e435f;}.cls-3{fill:#59bba1;}.cls-4{fill:#fff;}.cls-5{fill:none;stroke:#fff;stroke-miterlimit:10;}</style></defs><title>Imagotipo con tagline (Negativo)</title><g id="Layer_2" data-name="Layer 2"><g id="Isotipo_Color_" data-name="Isotipo (Color)"><path class="cls-1" d="M350,175a174.1,174.1,0,0,1-25.19,90.49l-72.73-49.05a87.51,87.51,0,0,0-144.37-97.37L35,70A175,175,0,0,1,350,175Z"/><path class="cls-2" d="M315,280A175,175,0,0,1,25.19,84.51l72.73,49.05a87.51,87.51,0,0,0,144.37,97.37Z"/><path class="cls-3" d="M242.29,230.93A87.51,87.51,0,0,1,97.92,133.56Z"/></g><g id="Logotipo_White_" data-name="Logotipo (White)"><g id="R_white_" data-name="R (white)"><path class="cls-4" d="M1747.07,56.47a22.26,22.26,0,0,1-2.78,11.2,20.1,20.1,0,0,1-7.66,7.65,23.91,23.91,0,0,1-22.38,0,20.17,20.17,0,0,1-7.66-7.65,22.26,22.26,0,0,1-2.78-11.2,22.22,22.22,0,0,1,2.78-11.19,20.27,20.27,0,0,1,7.66-7.66,23.91,23.91,0,0,1,22.38,0,20.2,20.2,0,0,1,7.66,7.66A22.22,22.22,0,0,1,1747.07,56.47Zm-40.38,0a19.33,19.33,0,0,0,2.41,9.72,17.49,17.49,0,0,0,6.62,6.63,20.88,20.88,0,0,0,19.44,0,17.49,17.49,0,0,0,6.62-6.63,19.23,19.23,0,0,0,2.41-9.72,19.19,19.19,0,0,0-2.41-9.71,17.35,17.35,0,0,0-6.62-6.63,20.88,20.88,0,0,0-19.44,0,17.35,17.35,0,0,0-6.62,6.63A19.29,19.29,0,0,0,1706.69,56.47Zm14,9.69a1.44,1.44,0,0,1-2.88,0V46a1.27,1.27,0,0,1,1.44-1.44h8a5.89,5.89,0,0,1,6.52,6.53v1c0,3.38-1.35,5.47-4,6.25l3.84,7.21a1.43,1.43,0,1,1-2.54,1.3l-4.32-8.17h-6Zm0-10.3h6.6a3.8,3.8,0,0,0,2.79-.86,4,4,0,0,0,.84-2.85v-1a3.86,3.86,0,0,0-.84-2.8,3.85,3.85,0,0,0-2.79-.84h-6.6Z"/></g><g id="Logotipo_white" data-name="Logotipo white"><g id="DataInt_Otlns" data-name="DataInt Otlns"><path class="cls-4" d="M428.81,283.16q-7.15,0-7.16-7.17V74.35q0-7.17,7.16-7.16H511q41.79,0,60.65,18.85t18.85,60.64v57q0,41.63-18.85,60.56T511,283.16ZM436,268.83H511q23.71,0,38-6.4a39.73,39.73,0,0,0,20.73-20.73q6.39-14.32,6.4-38v-57q0-23.7-6.4-38a39.73,39.73,0,0,0-20.73-20.73q-14.33-6.39-38-6.4H436Z"/><path class="cls-4" d="M728.71,283.16q-25.76,0-37.61-11.86t-11.86-37.62q0-25.92,11.94-37.87t37.53-11.94h79.5q-.16-24-10.41-33.86t-35-9.81H743q-23.19,0-33.77,5.37t-12.63,18.17a9.52,9.52,0,0,1-2.13,5c-1.08,1.2-2.76,1.79-5,1.79a6.49,6.49,0,0,1-7.17-7.5q1.37-19.45,16.47-28.32T743,125.87h19.79q31.23,0,45.47,14.24t14.24,45.47V276q0,7.17-7.17,7.17T808.21,276V255.86q-15.69,27.3-60.39,27.3Zm0-14.33h19.11q17.91,0,31-4.1t20.65-13q7.58-8.88,8.78-23.2V198.2h-79.5q-19.62,0-27.38,7.76t-7.76,27.72q0,19.62,7.76,27.38T728.71,268.83Z"/><path class="cls-4" d="M978.46,283.16q-30.71,0-44.7-14t-14-44.36V140.2h-21.5q-7.17,0-7.16-7.17t7.16-7.16h21.5V85.27q0-7.17,7.16-7.17t7.17,7.17v40.6h44q7.15,0,7.16,7.16t-7.16,7.17h-44v84.61q0,24.57,9.8,34.29t34.55,9.73q4.44,0,6,1.87A8.17,8.17,0,0,1,986,276Q986,283.16,978.46,283.16Z"/><path class="cls-4" d="M1100.26,283.16q-25.76,0-37.61-11.86t-11.86-37.62q0-25.92,11.94-37.87t37.53-11.94h79.5q-.16-24-10.41-33.86t-35-9.81h-19.79q-23.19,0-33.77,5.37t-12.63,18.17a9.52,9.52,0,0,1-2.13,5c-1.08,1.2-2.76,1.79-5,1.79a6.49,6.49,0,0,1-7.17-7.5q1.37-19.45,16.46-28.32t44.27-8.87h19.79q31.21,0,45.47,14.24t14.24,45.47V276q0,7.17-7.17,7.17t-7.16-7.17V255.86q-15.69,27.3-60.39,27.3Zm0-14.33h19.11q17.91,0,31-4.1t20.64-13q7.59-8.88,8.79-23.2V198.2h-79.5q-19.62,0-27.38,7.76t-7.76,27.72q0,19.62,7.76,27.38T1100.26,268.83Z"/><path class="cls-4" d="M1293.71,283.16a7,7,0,0,1-7.16-7.17V74a7.17,7.17,0,1,1,14.33,0V276a7,7,0,0,1-7.17,7.17Z"/><path class="cls-4" d="M1403.57,283.16q-7.17,0-7.16-7.17V133q0-7.16,7.16-7.16t7.17,7.16v19.79q15.51-27,60.39-26.95h9.55q31.21,0,45.46,14.24t14.25,45.47V276q0,7.17-7.17,7.17t-7.16-7.17V185.58q0-25.08-10.15-35.23t-35.23-10.15h-9.55q-28.32,0-43.51,9.64t-16.88,29.94V276Q1410.74,283.16,1403.57,283.16Z"/><path class="cls-4" d="M1696.3,283.16q-30.71,0-44.69-14t-14-44.36V140.2h-21.49q-7.17,0-7.17-7.17t7.17-7.16h21.49V85.27q0-7.17,7.17-7.17t7.16,7.17v40.6h44q7.17,0,7.17,7.16T1696,140.2h-44v84.61q0,24.57,9.81,34.29t34.54,9.73q4.44,0,6,1.87a8.11,8.11,0,0,1,1.54,5.29Q1703.81,283.16,1696.3,283.16Z"/></g></g></g><g id="Tagline_White_" data-name="Tagline (White)"><line class="cls-5" y1="444.85" x2="1703.13" y2="444.85"/><path class="cls-4" d="M67.46,516.49a47.9,47.9,0,0,1-1.84,13.7,30.07,30.07,0,0,1-5.53,10.69,24.76,24.76,0,0,1-9.18,7,31.21,31.21,0,0,1-12.83,2.47,31.43,31.43,0,0,1-12.89-2.47,24.58,24.58,0,0,1-9.19-7,30.71,30.71,0,0,1-5.5-10.73A48.21,48.21,0,0,1,8.66,516.4a42.68,42.68,0,0,1,3.39-17.56,26.64,26.64,0,0,1,10-11.86q6.62-4.28,16.37-4.27,9.35,0,15.84,4.07a25.45,25.45,0,0,1,9.83,11.63A44.35,44.35,0,0,1,67.46,516.49Zm-53.95,0A42,42,0,0,0,16.16,532a22.4,22.4,0,0,0,8.13,10.49q5.48,3.76,13.84,3.77T52,542.5a21.9,21.9,0,0,0,8-10.42,42.77,42.77,0,0,0,2.6-15.59q0-14.06-6.13-21.83t-18.08-7.77q-8.4,0-13.95,3.73A22.25,22.25,0,0,0,16.23,501,40.73,40.73,0,0,0,13.51,516.45Z"/><path class="cls-4" d="M140.09,483.74v42.5a26.72,26.72,0,0,1-3,13,19.79,19.79,0,0,1-8.52,8.2,29,29,0,0,1-13.27,2.83q-11.73,0-18-6.36T91,526.06V483.74h4.58v42.32q0,9.88,5.14,15t14.8,5.14A23.57,23.57,0,0,0,126.35,544a15.5,15.5,0,0,0,6.78-6.65,22.28,22.28,0,0,0,2.33-10.62v-43Z"/><path class="cls-4" d="M184.24,549.42h-4.67v-61.5H158.28v-4.18h47.25v4.18H184.24Z"/><path class="cls-4" d="M260.69,532.48a16,16,0,0,1-3,9.86,17.9,17.9,0,0,1-8,6,31.23,31.23,0,0,1-11.5,2,63.71,63.71,0,0,1-7.25-.38,52,52,0,0,1-5.89-1,40.63,40.63,0,0,1-4.78-1.44v-4.63a55.51,55.51,0,0,0,8.11,2.36,47,47,0,0,0,10,1,25.87,25.87,0,0,0,9.09-1.48,13.72,13.72,0,0,0,6.27-4.49,12.18,12.18,0,0,0,2.29-7.6,10.87,10.87,0,0,0-1.91-6.62,15.21,15.21,0,0,0-5.73-4.45,80.53,80.53,0,0,0-9.61-3.8,70.93,70.93,0,0,1-7.34-2.94,24,24,0,0,1-5.64-3.59,13.44,13.44,0,0,1-3.57-4.94,17.28,17.28,0,0,1-1.24-6.85,14.85,14.85,0,0,1,2.77-9.15,17,17,0,0,1,7.5-5.61A28.37,28.37,0,0,1,242,482.8a43.85,43.85,0,0,1,9,.88,40.59,40.59,0,0,1,8.2,2.62l-1.62,4a40.24,40.24,0,0,0-7.91-2.51,38.8,38.8,0,0,0-7.81-.81,23.24,23.24,0,0,0-8.25,1.37,12.61,12.61,0,0,0-5.72,4.11,11,11,0,0,0-2.12,6.92,11.48,11.48,0,0,0,2,7,14.67,14.67,0,0,0,5.57,4.4,73.15,73.15,0,0,0,8.56,3.42,73.24,73.24,0,0,1,10.06,4.15,17.59,17.59,0,0,1,6.53,5.5A14.83,14.83,0,0,1,260.69,532.48Z"/><path class="cls-4" d="M312.34,549.42l-24.12-60.64H288c.06,1.1.11,2.26.16,3.48s.08,2.47.11,3.79.05,2.7.05,4.14v49.23H283.9V483.74h7l23.27,58.49h.27l23.45-58.49h6.83v65.68h-4.54V499.65c0-1.17,0-2.37.05-3.6s.06-2.45.11-3.66.09-2.39.16-3.53h-.27L316,549.42Z"/><path class="cls-4" d="M413.63,549.42l-8.94-23.23H377.11L368,549.42h-4.72l25.83-65.9h4.22l25.16,65.9ZM403.21,522l-9.08-24.62q-.36-.94-.87-2.43c-.35-1-.71-2-1.08-3.14s-.74-2.16-1.1-3.14c-.3,1-.63,2.09-1,3.14l-1,3c-.33,1-.65,1.85-.95,2.63L378.68,522Z"/><path class="cls-4" d="M452.93,483.74A42.57,42.57,0,0,1,466,485.45a14.61,14.61,0,0,1,7.88,5.62q2.65,3.9,2.65,10.55a18.68,18.68,0,0,1-1.82,8.56,16,16,0,0,1-5,5.86,23.89,23.89,0,0,1-7.36,3.51l18,29.87h-5.48l-16.94-28.57h-16.3v28.57H437V483.74Zm-.45,4.09H441.61v28.93h13.07q8,0,12.55-3.86t4.52-11.1q0-7.95-4.76-11T452.48,487.83Z"/><path class="cls-4" d="M518,549.42h-4.67v-61.5H492v-4.18H539.3v4.18H518Z"/><path class="cls-4" d="M558.3,549.42V483.74h4.62v65.68Z"/><path class="cls-4" d="M638.47,549.42h-4.71l-38.82-58.08h-.22c.06,1.61.11,3.25.16,4.91s.09,3.37.13,5.13.07,3.55.07,5.41v42.63h-4.4V483.74h4.76l38.67,57.91h.23c0-1.32-.07-2.85-.11-4.58s-.09-3.52-.14-5.35-.07-3.55-.07-5.17V483.74h4.45Z"/><path class="cls-4" d="M692.14,516.27h24.13v30.14a47.83,47.83,0,0,1-10.06,2.94,63.45,63.45,0,0,1-11.37,1q-10.47,0-17.63-4a25.71,25.71,0,0,1-10.85-11.52q-3.69-7.55-3.68-18.15a37.3,37.3,0,0,1,4-17.56,29.43,29.43,0,0,1,11.52-12q7.5-4.36,18-4.36a50.13,50.13,0,0,1,10.17,1,42.88,42.88,0,0,1,9.1,3l-1.84,4.14a43.13,43.13,0,0,0-8.69-3,41,41,0,0,0-9-1,29.45,29.45,0,0,0-15.29,3.8,25.17,25.17,0,0,0-9.8,10.51,33.92,33.92,0,0,0-3.39,15.48q0,9.93,3.28,16.48a21.66,21.66,0,0,0,9.59,9.84,32.9,32.9,0,0,0,15.34,3.28,49.64,49.64,0,0,0,8.88-.72,43.52,43.52,0,0,0,7.12-1.89V520.49H692.14Z"/><path class="cls-4" d="M811.21,532.48a16,16,0,0,1-3,9.86,18,18,0,0,1-8,6,31.27,31.27,0,0,1-11.5,2,63.77,63.77,0,0,1-7.26-.38,51.78,51.78,0,0,1-5.88-1,40.06,40.06,0,0,1-4.78-1.44v-4.63a55.36,55.36,0,0,0,8.1,2.36,47.11,47.11,0,0,0,10,1,25.89,25.89,0,0,0,9.1-1.48,13.72,13.72,0,0,0,6.27-4.49,12.24,12.24,0,0,0,2.29-7.6,10.87,10.87,0,0,0-1.91-6.62,15.21,15.21,0,0,0-5.73-4.45,80.53,80.53,0,0,0-9.61-3.8,70.25,70.25,0,0,1-7.35-2.94,23.75,23.75,0,0,1-5.63-3.59,13.58,13.58,0,0,1-3.58-4.94,17.46,17.46,0,0,1-1.23-6.85,14.91,14.91,0,0,1,2.76-9.15,17,17,0,0,1,7.5-5.61,28.41,28.41,0,0,1,10.67-1.91,43.78,43.78,0,0,1,9,.88,40.39,40.39,0,0,1,8.2,2.62l-1.61,4a40.45,40.45,0,0,0-7.91-2.51,38.9,38.9,0,0,0-7.82-.81,23.22,23.22,0,0,0-8.24,1.37,12.7,12.7,0,0,0-5.73,4.11,11,11,0,0,0-2.11,6.92,11.48,11.48,0,0,0,1.95,7,14.71,14.71,0,0,0,5.58,4.4,73.66,73.66,0,0,0,8.55,3.42,72.89,72.89,0,0,1,10.07,4.15,17.59,17.59,0,0,1,6.53,5.5A14.9,14.9,0,0,1,811.21,532.48Z"/><path class="cls-4" d="M870.32,549.42H834.43V483.74h35.89v4.18H839.06v24.89h29.51V517H839.06v28.25h31.26Z"/><path class="cls-4" d="M922.33,487a28.15,28.15,0,0,0-11.23,2.13,23.07,23.07,0,0,0-8.35,6,26.7,26.7,0,0,0-5.21,9.33,37.55,37.55,0,0,0-1.8,11.92,40.12,40.12,0,0,0,2.83,15.7,22.35,22.35,0,0,0,8.51,10.4q5.68,3.69,14.18,3.69a49.45,49.45,0,0,0,9-.75,52.6,52.6,0,0,0,7.5-1.91v4.05a43.93,43.93,0,0,1-7.39,2,52.61,52.61,0,0,1-9.54.77q-9.84,0-16.51-4.22a26.11,26.11,0,0,1-10-11.86,43.82,43.82,0,0,1-3.37-17.84A41,41,0,0,1,893,503a30.63,30.63,0,0,1,6.18-10.65,28,28,0,0,1,9.9-7,33.63,33.63,0,0,1,13.3-2.49,43.14,43.14,0,0,1,9,.92,38.9,38.9,0,0,1,8.06,2.67l-1.8,4.05a32,32,0,0,0-7.45-2.63A37.2,37.2,0,0,0,922.33,487Z"/><path class="cls-4" d="M1009.11,483.74v42.5a26.72,26.72,0,0,1-3,13,19.82,19.82,0,0,1-8.51,8.2,29,29,0,0,1-13.28,2.83q-11.73,0-18-6.36t-6.29-17.9V483.74h4.58v42.32q0,9.88,5.14,15t14.81,5.14A23.55,23.55,0,0,0,995.37,544a15.5,15.5,0,0,0,6.78-6.65,22.28,22.28,0,0,0,2.34-10.62v-43Z"/><path class="cls-4" d="M1052.05,483.74a42.57,42.57,0,0,1,13,1.71,14.57,14.57,0,0,1,7.88,5.62q2.65,3.9,2.65,10.55a18.68,18.68,0,0,1-1.81,8.56,16.17,16.17,0,0,1-5,5.86,24.06,24.06,0,0,1-7.37,3.51l18,29.87H1074L1057,520.85h-16.31v28.57h-4.63V483.74Zm-.45,4.09h-10.87v28.93h13.07q8,0,12.56-3.86t4.51-11.1q0-7.95-4.76-11T1051.6,487.83Z"/><path class="cls-4" d="M1100,549.42V483.74h4.63v65.68Z"/><path class="cls-4" d="M1149.51,549.42h-4.67v-61.5h-21.29v-4.18h47.26v4.18h-21.3Z"/><path class="cls-4" d="M1204.85,519.59,1224,483.74h5.08L1207.23,524v25.38h-4.63v-25l-22.06-40.66h5.13Z"/><path class="cls-4" d="M1297.82,549.42h-4.67v-61.5h-21.3v-4.18h47.26v4.18h-21.29Z"/><path class="cls-4" d="M1385.72,549.42h-4.63V517.08h-38.36v32.34h-4.63V483.74h4.63v29.11h38.36V483.74h4.63Z"/><path class="cls-4" d="M1429.42,483.74a42.57,42.57,0,0,1,13,1.71,14.57,14.57,0,0,1,7.88,5.62q2.65,3.9,2.65,10.55a18.68,18.68,0,0,1-1.81,8.56,16.17,16.17,0,0,1-5,5.86,24.06,24.06,0,0,1-7.37,3.51l18,29.87h-5.48l-16.93-28.57H1418.1v28.57h-4.63V483.74Zm-.45,4.09H1418.1v28.93h13.07q8,0,12.56-3.86t4.51-11.1q0-7.95-4.76-11T1429,487.83Z"/><path class="cls-4" d="M1513.24,549.42h-35.9V483.74h35.9v4.18H1482v24.89h29.51V517H1482v28.25h31.27Z"/><path class="cls-4" d="M1578.45,549.42l-8.94-23.23h-27.58l-9.12,23.23h-4.71l25.83-65.9h4.22l25.16,65.9ZM1568,522,1559,497.4c-.24-.63-.53-1.44-.88-2.43l-1.08-3.14c-.37-1.11-.74-2.16-1.1-3.14-.3,1-.63,2.09-1,3.14s-.7,2.06-1,3-.64,1.85-.94,2.63L1543.5,522Z"/><path class="cls-4" d="M1619,549.42h-4.67v-61.5H1593v-4.18h47.26v4.18H1619Z"/><path class="cls-4" d="M1695.41,532.48a16.06,16.06,0,0,1-3,9.86,18,18,0,0,1-8,6,31.27,31.27,0,0,1-11.5,2,63.77,63.77,0,0,1-7.26-.38,51.78,51.78,0,0,1-5.88-1,40.82,40.82,0,0,1-4.79-1.44v-4.63a55.88,55.88,0,0,0,8.11,2.36,47.11,47.11,0,0,0,10,1,25.89,25.89,0,0,0,9.1-1.48,13.72,13.72,0,0,0,6.27-4.49,12.24,12.24,0,0,0,2.29-7.6,10.87,10.87,0,0,0-1.91-6.62,15.37,15.37,0,0,0-5.73-4.45,81.22,81.22,0,0,0-9.61-3.8,70.25,70.25,0,0,1-7.35-2.94,24,24,0,0,1-5.64-3.59,13.67,13.67,0,0,1-3.57-4.94,17.46,17.46,0,0,1-1.23-6.85,14.91,14.91,0,0,1,2.76-9.15,17,17,0,0,1,7.5-5.61,28.41,28.41,0,0,1,10.67-1.91,43.78,43.78,0,0,1,9,.88,40.39,40.39,0,0,1,8.2,2.62l-1.62,4a40.15,40.15,0,0,0-7.9-2.51,38.9,38.9,0,0,0-7.82-.81,23.22,23.22,0,0,0-8.24,1.37,12.7,12.7,0,0,0-5.73,4.11,11,11,0,0,0-2.11,6.92,11.48,11.48,0,0,0,1.95,7,14.75,14.75,0,0,0,5.57,4.4,73.87,73.87,0,0,0,8.56,3.42,72.72,72.72,0,0,1,10.06,4.15,17.55,17.55,0,0,1,6.54,5.5A14.9,14.9,0,0,1,1695.41,532.48Z"/></g></g></svg>