<svg xmlns="http://www.w3.org/2000/svg" viewBox="0 0 1747.07 350"><defs><style>.cls-1{fill:#5e738e;}.cls-2{fill:#2e435f;}.cls-3{fill:#59bba1;}.cls-4{fill:#10253f;}</style></defs><title>Imagotipo</title><g id="Layer_2" data-name="Layer 2"><g id="Isotipo_Color_" data-name="Isotipo (Color)"><path class="cls-1" d="M350,175a174.1,174.1,0,0,1-25.19,90.49l-72.73-49.05a87.51,87.51,0,0,0-144.37-97.37L35,70A175,175,0,0,1,350,175Z"/><path class="cls-2" d="M315,280A175,175,0,0,1,25.19,84.51l72.73,49.05a87.51,87.51,0,0,0,144.37,97.37Z"/><path class="cls-3" d="M242.29,230.93A87.51,87.51,0,0,1,97.92,133.56Z"/></g><g id="Logotipo_Color_" data-name="Logotipo (Color)"><g id="Logotipo_default" data-name="Logotipo default"><g id="DataInt_Otlns" data-name="DataInt Otlns"><path class="cls-4" d="M428.81,283.16q-7.15,0-7.16-7.17V74.35q0-7.17,7.16-7.16H511q41.79,0,60.65,18.85t18.85,60.64v57q0,41.63-18.85,60.56T511,283.16ZM436,268.83H511q23.71,0,38-6.4a39.73,39.73,0,0,0,20.73-20.73q6.39-14.32,6.4-38v-57q0-23.7-6.4-38a39.73,39.73,0,0,0-20.73-20.73q-14.33-6.39-38-6.4H436Z"/><path class="cls-4" d="M728.71,283.16q-25.76,0-37.61-11.86t-11.86-37.62q0-25.92,11.94-37.87t37.53-11.94h79.5q-.16-24-10.41-33.86t-35-9.81H743q-23.19,0-33.77,5.37t-12.63,18.17a9.52,9.52,0,0,1-2.13,5c-1.08,1.2-2.76,1.79-5,1.79a6.49,6.49,0,0,1-7.17-7.5q1.37-19.45,16.47-28.32T743,125.87h19.79q31.23,0,45.47,14.24t14.24,45.47V276q0,7.17-7.17,7.17T808.21,276V255.86q-15.69,27.3-60.39,27.3Zm0-14.33h19.11q17.91,0,31-4.1t20.65-13q7.58-8.88,8.78-23.2V198.2h-79.5q-19.62,0-27.38,7.76t-7.76,27.72q0,19.62,7.76,27.38T728.71,268.83Z"/><path class="cls-4" d="M978.46,283.16q-30.71,0-44.7-14t-14-44.36V140.2h-21.5q-7.17,0-7.16-7.17t7.16-7.16h21.5V85.27q0-7.17,7.16-7.17t7.17,7.17v40.6h44q7.15,0,7.16,7.16t-7.16,7.17h-44v84.61q0,24.57,9.8,34.29t34.55,9.73q4.44,0,6,1.87A8.17,8.17,0,0,1,986,276Q986,283.16,978.46,283.16Z"/><path class="cls-4" d="M1100.26,283.16q-25.76,0-37.61-11.86t-11.86-37.62q0-25.92,11.94-37.87t37.53-11.94h79.5q-.16-24-10.41-33.86t-35-9.81h-19.79q-23.19,0-33.77,5.37t-12.63,18.17a9.52,9.52,0,0,1-2.13,5c-1.08,1.2-2.76,1.79-5,1.79a6.49,6.49,0,0,1-7.17-7.5q1.37-19.45,16.46-28.32t44.27-8.87h19.79q31.21,0,45.47,14.24t14.24,45.47V276q0,7.17-7.17,7.17t-7.16-7.17V255.86q-15.69,27.3-60.39,27.3Zm0-14.33h19.11q17.91,0,31-4.1t20.64-13q7.59-8.88,8.79-23.2V198.2h-79.5q-19.62,0-27.38,7.76t-7.76,27.72q0,19.62,7.76,27.38T1100.26,268.83Z"/><path class="cls-4" d="M1293.71,283.16a7,7,0,0,1-7.16-7.17V74a7.17,7.17,0,1,1,14.33,0V276a7,7,0,0,1-7.17,7.17Z"/><path class="cls-4" d="M1403.57,283.16q-7.17,0-7.16-7.17V133q0-7.16,7.16-7.16t7.17,7.16v19.79q15.51-27,60.39-26.95h9.55q31.21,0,45.46,14.24t14.25,45.47V276q0,7.17-7.17,7.17t-7.16-7.17V185.58q0-25.08-10.15-35.23t-35.23-10.15h-9.55q-28.32,0-43.51,9.64t-16.88,29.94V276Q1410.74,283.16,1403.57,283.16Z"/><path class="cls-4" d="M1696.3,283.16q-30.71,0-44.69-14t-14-44.36V140.2h-21.49q-7.17,0-7.17-7.17t7.17-7.16h21.49V85.27q0-7.17,7.17-7.17t7.16,7.17v40.6h44q7.17,0,7.17,7.16T1696,140.2h-44v84.61q0,24.57,9.81,34.29t34.54,9.73q4.44,0,6,1.87a8.11,8.11,0,0,1,1.54,5.29Q1703.81,283.16,1696.3,283.16Z"/></g></g><g id="R_default_" data-name="R (default)"><path class="cls-4" d="M1747.07,56.47a22.26,22.26,0,0,1-2.78,11.2,20.1,20.1,0,0,1-7.66,7.65,23.91,23.91,0,0,1-22.38,0,20.17,20.17,0,0,1-7.66-7.65,22.26,22.26,0,0,1-2.78-11.2,22.22,22.22,0,0,1,2.78-11.19,20.27,20.27,0,0,1,7.66-7.66,23.91,23.91,0,0,1,22.38,0,20.2,20.2,0,0,1,7.66,7.66A22.22,22.22,0,0,1,1747.07,56.47Zm-40.38,0a19.33,19.33,0,0,0,2.41,9.72,17.49,17.49,0,0,0,6.62,6.63,20.88,20.88,0,0,0,19.44,0,17.49,17.49,0,0,0,6.62-6.63,19.23,19.23,0,0,0,2.41-9.72,19.19,19.19,0,0,0-2.41-9.71,17.35,17.35,0,0,0-6.62-6.63,20.88,20.88,0,0,0-19.44,0,17.35,17.35,0,0,0-6.62,6.63A19.29,19.29,0,0,0,1706.69,56.47Zm14,9.69a1.44,1.44,0,0,1-2.88,0V46a1.27,1.27,0,0,1,1.44-1.44h8a5.89,5.89,0,0,1,6.52,6.53v1c0,3.38-1.35,5.47-4,6.25l3.84,7.21a1.43,1.43,0,1,1-2.54,1.3l-4.32-8.17h-6Zm0-10.3h6.6a3.8,3.8,0,0,0,2.79-.86,4,4,0,0,0,.84-2.85v-1a3.86,3.86,0,0,0-.84-2.8,3.85,3.85,0,0,0-2.79-.84h-6.6Z"/></g></g></g></svg>