<svg xmlns="http://www.w3.org/2000/svg" viewBox="0 0 734.04 734.04"><defs><style>.cls-1{fill:#5e738e;}.cls-2{fill:#2e435f;}.cls-3{fill:#59bba1;}</style></defs><title>Isotipo</title><g id="Layer_2" data-name="Layer 2"><g id="Isotipo"><path class="cls-1" d="M734,367a365.25,365.25,0,0,1-52.83,189.79L528.68,453.93A183.53,183.53,0,0,0,225.9,249.71L73.37,146.83C140.32,57.67,246.94,0,367,0,569.72,0,734,164.32,734,367Z"/><path class="cls-2" d="M660.67,587.21C593.72,676.37,487.1,734,367,734,164.32,734,0,569.72,0,367A365.25,365.25,0,0,1,52.83,177.23L205.36,280.11A183.53,183.53,0,0,0,508.14,484.33Z"/><path class="cls-3" d="M508.14,484.33A183.53,183.53,0,0,1,205.36,280.11Z"/></g></g></svg>