<svg xmlns="http://www.w3.org/2000/svg" viewBox="0 0 1325.42 248.31"><defs><style>.cls-1{fill:#fff;}</style></defs><title>Logotipo BN</title><g id="Layer_2" data-name="Layer 2"><g id="Logotipo_White_" data-name="Logotipo (White)"><g id="R_white_" data-name="R (white)"><path class="cls-1" d="M1325.42,21.63a22.22,22.22,0,0,1-2.78,11.19,20.13,20.13,0,0,1-7.66,7.66,23.91,23.91,0,0,1-22.38,0,20.2,20.2,0,0,1-7.66-7.66,22.22,22.22,0,0,1-2.78-11.19,22.22,22.22,0,0,1,2.78-11.19,20.2,20.2,0,0,1,7.66-7.66,23.91,23.91,0,0,1,22.38,0,20.13,20.13,0,0,1,7.66,7.66A22.22,22.22,0,0,1,1325.42,21.63Zm-40.37,0a19.35,19.35,0,0,0,2.4,9.72,17.35,17.35,0,0,0,6.63,6.62,20.79,20.79,0,0,0,19.43,0,17.39,17.39,0,0,0,6.62-6.62,19.25,19.25,0,0,0,2.41-9.72,19.25,19.25,0,0,0-2.41-9.72,17.39,17.39,0,0,0-6.62-6.62,20.79,20.79,0,0,0-19.43,0,17.35,17.35,0,0,0-6.63,6.62A19.35,19.35,0,0,0,1285.05,21.63Zm14,9.68a1.44,1.44,0,1,1-2.88,0V11.19a1.27,1.27,0,0,1,1.44-1.44h8a6.58,6.58,0,0,1,4.84,1.68,6.56,6.56,0,0,1,1.68,4.84v1q0,5.09-4.05,6.25l3.84,7.21a1.43,1.43,0,0,1-2.54,1.31l-4.32-8.17h-6Zm0-10.3h6.6a3.76,3.76,0,0,0,2.79-.86,4,4,0,0,0,.84-2.85v-1a3.85,3.85,0,0,0-.84-2.79,3.85,3.85,0,0,0-2.79-.85h-6.6Z"/></g><g id="Logotipo_white" data-name="Logotipo white"><g id="DataInt_Otlns" data-name="DataInt Otlns"><path class="cls-1" d="M7.16,248.31Q0,248.31,0,241.15V39.51q0-7.17,7.16-7.17H89.39q41.79,0,60.65,18.85t18.85,60.65v57q0,41.63-18.85,60.56T89.39,248.31ZM14.33,234H89.39q23.72,0,38-6.4a39.64,39.64,0,0,0,20.73-20.72q6.39-14.33,6.4-38v-57q0-23.72-6.4-38a39.63,39.63,0,0,0-20.73-20.73q-14.33-6.41-38-6.4H14.33Z"/><path class="cls-1" d="M307.07,248.31q-25.77,0-37.62-11.85t-11.86-37.62q0-25.92,11.94-37.87T307.07,149h79.49q-.17-24.06-10.41-33.86t-35-9.81H321.39q-23.19,0-33.77,5.37T275,128.9a9.52,9.52,0,0,1-2.13,5,6.48,6.48,0,0,1-5,1.79,6.49,6.49,0,0,1-7.17-7.5Q262,108.77,277.13,99.9T321.39,91h19.79q31.23,0,45.47,14.24t14.24,45.46v90.42q0,7.15-7.16,7.16t-7.17-7.16V221q-15.69,27.3-60.39,27.29Zm0-14.33h19.1q17.91,0,31-4.09t20.65-13q7.59-8.86,8.78-23.2V163.36H307.07q-19.63,0-27.39,7.76t-7.76,27.72q0,19.62,7.76,27.38T307.07,234Z"/><path class="cls-1" d="M556.81,248.31q-30.7,0-44.7-14t-14-44.35V105.36h-21.5q-7.17,0-7.16-7.17T476.63,91h21.5V50.42q0-7.16,7.16-7.16t7.17,7.16V91h44c4.77,0,7.17,2.38,7.17,7.16s-2.4,7.17-7.17,7.17h-44V190q0,24.57,9.81,34.29T556.81,234q4.44,0,6,1.88a8.15,8.15,0,0,1,1.54,5.29Q564.32,248.3,556.81,248.31Z"/><path class="cls-1" d="M678.61,248.31q-25.75,0-37.61-11.85t-11.86-37.62q0-25.92,11.94-37.87T678.61,149h79.5q-.17-24.06-10.41-33.86t-35-9.81H692.94q-23.19,0-33.77,5.37T646.54,128.9a9.52,9.52,0,0,1-2.13,5,6.48,6.48,0,0,1-5,1.79,6.49,6.49,0,0,1-7.17-7.5q1.37-19.45,16.46-28.32T692.94,91h19.79q31.21,0,45.47,14.24t14.24,45.46v90.42q0,7.15-7.16,7.16t-7.17-7.16V221q-15.69,27.3-60.39,27.29Zm0-14.33h19.11q17.91,0,31-4.09t20.65-13q7.57-8.86,8.78-23.2V163.36h-79.5q-19.62,0-27.38,7.76t-7.76,27.72q0,19.62,7.76,27.38T678.61,234Z"/><path class="cls-1" d="M872.06,248.31a7,7,0,0,1-7.16-7.16v-202a7.17,7.17,0,1,1,14.33,0v202a7,7,0,0,1-7.17,7.16Z"/><path class="cls-1" d="M981.92,248.31q-7.17,0-7.16-7.16v-143q0-7.17,7.16-7.16t7.17,7.16V118Q1004.6,91,1049.48,91H1059q31.21,0,45.46,14.24t14.25,45.46v90.42q0,7.15-7.17,7.16t-7.16-7.16V150.73q0-25.06-10.15-35.22T1059,105.36h-9.55q-28.32,0-43.5,9.63t-16.89,29.94v96.22Q989.09,248.3,981.92,248.31Z"/><path class="cls-1" d="M1274.65,248.31q-30.7,0-44.69-14T1216,190V105.36h-21.49q-7.17,0-7.17-7.17t7.17-7.16H1216V50.42q0-7.16,7.17-7.16t7.16,7.16V91h44q7.17,0,7.17,7.16t-7.17,7.17h-44V190q0,24.57,9.81,34.29t34.54,9.72q4.44,0,6,1.88a8.15,8.15,0,0,1,1.53,5.29Q1282.16,248.3,1274.65,248.31Z"/></g></g></g></g></svg>